<svg id="kity_svg_6" xmlns="http://www.w3.org/2000/svg" xmlns:xlink="http://www.w3.org/1999/xlink" version="1.1" width="1573" height="2239" style="background: rgb(251, 251, 251); visibility: visible;" viewBox="0 0 1573 2239"><defs id="kity_defs_7"><linearGradient id="kity_linearGradient_17" x1="0" y1="0" x2="0" y2="1"><stop id="kity_stop_18" offset="0" stop-color="rgb(255, 255, 255)"></stop><stop id="kity_stop_19" offset="1" stop-color="rgb(204, 204, 204)"></stop></linearGradient><marker id="kity_marker_2" orient="auto" refX="6" refY="0" viewBox="-7 -7 14 14" markerWidth="7" markerHeight="7" markerUnits="userSpaceOnUse"><path id="kity_path_3" fill="rgb(115, 161, 191)" stroke="none" d="M6,0A6,6,0,1,1,-6,0A6,6,0,1,1,6,0"></path></marker></defs><g id="kity_g_8"><g id="minder1" text-rendering="optimize-speed"><g id="minder_connect_group1"><path id="kity_path_31" fill="none" stroke="rgb(115, 161, 191)" stroke-width="1" d="M71.5,1585.5A169,621,0,0,1,240.5,964.5"></path><path id="kity_path_39" fill="none" stroke="rgb(115, 161, 191)" stroke-width="1" d="M71.5,1585.5A169,465,0,0,0,240.5,2050.5"></path><path id="kity_path_47" fill="none" stroke="rgb(115, 161, 191)" stroke-width="1" d="M71.5,1585.5A169,555,0,0,0,240.5,2140.5"></path><path id="kity_path_55" fill="none" stroke="rgb(115, 161, 191)" stroke-width="1" d="M71.5,1585.5A169,621,0,0,0,240.5,2206.5"></path><path id="kity_path_71" fill="none" stroke="rgb(115, 161, 191)" stroke-width="1" d="M467.5,964.5C487.5,964.5,487.5,252.5,507.5,252.5"></path><path id="kity_path_79" fill="none" stroke="rgb(115, 161, 191)" stroke-width="1" d="M467.5,964.5C487.5,964.5,487.5,1036.5,507.5,1036.5"></path><path id="kity_path_87" fill="none" stroke="rgb(115, 161, 191)" stroke-width="1" d="M467.5,964.5C487.5,964.5,487.5,1676.5,507.5,1676.5"></path><path id="kity_path_95" fill="none" stroke="rgb(115, 161, 191)" stroke-width="1" d="M481.5,2050.5C501.5,2050.5,501.5,2024.5,521.5,2024.5"></path><path id="kity_path_103" fill="none" stroke="rgb(115, 161, 191)" stroke-width="1" d="M481.5,2050.5C501.5,2050.5,501.5,2076.5,521.5,2076.5"></path><path id="kity_path_111" fill="none" stroke="rgb(115, 161, 191)" stroke-width="1" d="M657.5,252.5C677.5,252.5,677.5,31.5,697.5,31.5"></path><path id="kity_path_119" fill="none" stroke="rgb(115, 161, 191)" stroke-width="1" d="M657.5,252.5C677.5,252.5,677.5,149,697.5,149"></path><path id="kity_path_128" fill="none" stroke="rgb(115, 161, 191)" stroke-width="1" d="M657.5,252.5C677.5,252.5,677.5,474.5,697.5,474.5"></path><path id="kity_path_144" fill="none" stroke="rgb(115, 161, 191)" stroke-width="1" d="M1068.5,474.5C1088.5,474.5,1088.5,292.5,1108.5,292.5"></path><path id="kity_path_152" fill="none" stroke="rgb(115, 161, 191)" stroke-width="1" d="M1068.5,474.5C1088.5,474.5,1088.5,448.5,1108.5,448.5"></path><path id="kity_path_160" fill="none" stroke="rgb(115, 161, 191)" stroke-width="1" d="M1068.5,474.5C1088.5,474.5,1088.5,656.5,1108.5,656.5"></path><path id="kity_path_168" fill="none" stroke="rgb(115, 161, 191)" stroke-width="1" d="M1202.5,292.5C1222.5,292.5,1222.5,266.5,1242.5,266.5"></path><path id="kity_path_176" fill="none" stroke="rgb(115, 161, 191)" stroke-width="1" d="M1202.5,292.5C1222.5,292.5,1222.5,318.5,1242.5,318.5"></path><path id="kity_path_184" fill="none" stroke="rgb(115, 161, 191)" stroke-width="1" d="M1214.5,448.5C1234.5,448.5,1234.5,370.5,1254.5,370.5"></path><path id="kity_path_192" fill="none" stroke="rgb(115, 161, 191)" stroke-width="1" d="M1214.5,448.5C1234.5,448.5,1234.5,422.5,1254.5,422.5"></path><path id="kity_path_216" fill="none" stroke="rgb(115, 161, 191)" stroke-width="1" d="M1214.5,448.5C1234.5,448.5,1234.5,474.5,1254.5,474.5"></path><path id="kity_path_224" fill="none" stroke="rgb(115, 161, 191)" stroke-width="1" d="M1214.5,448.5C1234.5,448.5,1234.5,526.5,1254.5,526.5"></path><path id="kity_path_232" fill="none" stroke="rgb(115, 161, 191)" stroke-width="1" d="M1226.5,656.5C1246.5,656.5,1246.5,578.5,1266.5,578.5"></path><path id="kity_path_240" fill="none" stroke="rgb(115, 161, 191)" stroke-width="1" d="M1226.5,656.5C1246.5,656.5,1246.5,630.5,1266.5,630.5"></path><path id="kity_path_248" fill="none" stroke="rgb(115, 161, 191)" stroke-width="1" d="M1226.5,656.5C1246.5,656.5,1246.5,682.5,1266.5,682.5"></path><path id="kity_path_256" fill="none" stroke="rgb(115, 161, 191)" stroke-width="1" d="M1226.5,656.5C1246.5,656.5,1246.5,734.5,1266.5,734.5"></path><path id="kity_path_264" fill="none" stroke="rgb(115, 161, 191)" stroke-width="1" d="M657.5,1036.5C677.5,1036.5,677.5,786.5,697.5,786.5"></path><path id="kity_path_272" fill="none" stroke="rgb(115, 161, 191)" stroke-width="1" d="M766.5,786.5C786.5,786.5,786.5,786.5,806.5,786.5"></path><path id="kity_path_280" fill="none" stroke="rgb(115, 161, 191)" stroke-width="1" d="M887.5,786.5C907.5,786.5,907.5,786.5,927.5,786.5"></path><path id="kity_path_296" fill="none" stroke="rgb(115, 161, 191)" stroke-width="1" d="M657.5,1036.5C677.5,1036.5,677.5,838.5,697.5,838.5"></path><path id="kity_path_304" fill="none" stroke="rgb(115, 161, 191)" stroke-width="1" d="M657.5,1036.5C677.5,1036.5,677.5,959,697.5,959"></path><path id="kity_path_313" fill="none" stroke="rgb(115, 161, 191)" stroke-width="1" d="M657.5,1036.5C677.5,1036.5,677.5,1079.5,697.5,1079.5"></path><path id="kity_path_321" fill="none" stroke="rgb(115, 161, 191)" stroke-width="1" d="M657.5,1036.5C677.5,1036.5,677.5,1131.5,697.5,1131.5"></path><path id="kity_path_337" fill="none" stroke="rgb(115, 161, 191)" stroke-width="1" d="M657.5,1036.5C677.5,1036.5,677.5,1183.5,697.5,1183.5"></path><path id="kity_path_345" fill="none" stroke="rgb(115, 161, 191)" stroke-width="1" d="M657.5,1036.5C677.5,1036.5,677.5,1287.5,697.5,1287.5"></path><path id="kity_path_361" fill="none" stroke="rgb(115, 161, 191)" stroke-width="1" d="M814.5,1287.5C834.5,1287.5,834.5,1235.5,854.5,1235.5"></path><path id="kity_path_369" fill="none" stroke="rgb(115, 161, 191)" stroke-width="1" d="M814.5,1287.5C834.5,1287.5,834.5,1339.5,854.5,1339.5"></path><path id="kity_path_377" fill="none" stroke="rgb(115, 161, 191)" stroke-width="1" d="M883.5,1339.5C903.5,1339.5,903.5,1287.5,923.5,1287.5"></path><path id="kity_path_385" fill="none" stroke="rgb(115, 161, 191)" stroke-width="1" d="M883.5,1339.5C903.5,1339.5,903.5,1339.5,923.5,1339.5"></path><path id="kity_path_393" fill="none" stroke="rgb(115, 161, 191)" stroke-width="1" d="M883.5,1339.5C903.5,1339.5,903.5,1391.5,923.5,1391.5"></path><path id="kity_path_401" fill="none" stroke="rgb(115, 161, 191)" stroke-width="1" d="M1101.5,1391.5C1121.5,1391.5,1121.5,1391.5,1141.5,1391.5"></path><path id="kity_path_409" fill="none" stroke="rgb(115, 161, 191)" stroke-width="1" d="M664.5,1676.5C684.5,1676.5,684.5,1442.5,704.5,1442.5"></path><path id="kity_path_417" fill="none" stroke="rgb(115, 161, 191)" stroke-width="1" d="M664.5,1676.5C684.5,1676.5,684.5,1494.5,704.5,1494.5"></path><path id="kity_path_425" fill="none" stroke="rgb(115, 161, 191)" stroke-width="1" d="M786.5,1676.5C806.5,1676.5,806.5,1598.5,826.5,1598.5"></path><path id="kity_path_457" fill="none" stroke="rgb(115, 161, 191)" stroke-width="1" d="M786.5,1676.5C806.5,1676.5,806.5,1754.5,826.5,1754.5"></path><path id="kity_path_489" fill="none" stroke="rgb(115, 161, 191)" stroke-width="1" d="M664.5,1676.5C684.5,1676.5,684.5,1676.5,704.5,1676.5"></path><path id="kity_path_496" fill="none" stroke="rgb(115, 161, 191)" stroke-width="1" d="M1015.5,1598.5C1035.5,1598.5,1035.5,1546.5,1055.5,1546.5"></path><path id="kity_path_497" fill="none" stroke="rgb(115, 161, 191)" stroke-width="1" d="M1015.5,1598.5C1035.5,1598.5,1035.5,1598.5,1055.5,1598.5"></path><path id="kity_path_498" fill="none" stroke="rgb(115, 161, 191)" stroke-width="1" d="M1015.5,1598.5C1035.5,1598.5,1035.5,1650.5,1055.5,1650.5"></path><path id="kity_path_499" fill="none" stroke="rgb(115, 161, 191)" stroke-width="1" d="M979.5,1754.5C999.5,1754.5,999.5,1702.5,1019.5,1702.5"></path><path id="kity_path_500" fill="none" stroke="rgb(115, 161, 191)" stroke-width="1" d="M979.5,1754.5C999.5,1754.5,999.5,1754.5,1019.5,1754.5"></path><path id="kity_path_501" fill="none" stroke="rgb(115, 161, 191)" stroke-width="1" d="M979.5,1754.5C999.5,1754.5,999.5,1806.5,1019.5,1806.5"></path><path id="kity_path_503" fill="none" stroke="rgb(115, 161, 191)" stroke-width="1" d="M664.5,1676.5C684.5,1676.5,684.5,1910.5,704.5,1910.5"></path><path id="kity_path_511" fill="none" stroke="rgb(115, 161, 191)" stroke-width="1" d="M810.5,1910.5C830.5,1910.5,830.5,1858.5,850.5,1858.5"></path><path id="kity_path_519" fill="none" stroke="rgb(115, 161, 191)" stroke-width="1" d="M810.5,1910.5C830.5,1910.5,830.5,1910.5,850.5,1910.5"></path><path id="kity_path_527" fill="none" stroke="rgb(115, 161, 191)" stroke-width="1" d="M810.5,1910.5C830.5,1910.5,830.5,1962.5,850.5,1962.5"></path></g><g id="minder_node1"><path id="node_outline1" fill="rgb(115, 161, 191)" stroke="rgb(115, 161, 191)" d="M25.5,1565.5h92a5,5,0,0,1,5,5v30a5,5,0,0,1,-5,5h-92a5,5,0,0,1,-5,-5v-30a5,5,0,0,1,5,-5z" stroke-width="3"></path><g id="node_text1" fill="white"><text id="kity_text_22" text-rendering="inherit" font-size="16" dy=".8em" y="1575.0999999046326" x="44.5">Chap 1</text></g></g><g id="kity_g_14" display="none"><path id="kity_path_15" fill="rgba(0, 92, 153, 0.5)" stroke="none" d="M704.5,1867.5h82v15h-82z"></path><path id="kity_path_16" fill="none" stroke="rgb(0, 76, 128)" d="M704.5,1867.5L786.5,1867.5" stroke-width="1"></path></g><g id="minder_node2"><g id="node_expander1" style="cursor: pointer;"><path id="kity_path_36" fill="white" stroke="gray" d="M241.5,964.5A6,6,0,1,1,229.5,964.5A6,6,0,1,1,241.5,964.5"></path><path id="kity_path_37" fill="none" stroke="gray" d="M231,964.5L240,964.5"></path></g><path id="node_outline2" fill="rgb(238, 243, 246)" stroke="rgb(115, 161, 191)" d="M245.5,951.5h219a3,3,0,0,1,3,3v20a3,3,0,0,1,-3,3h-219a3,3,0,0,1,-3,-3v-20a3,3,0,0,1,3,-3z" stroke-width="1"></path><g id="node_text2" fill="black"><text id="kity_text_33" text-rendering="inherit" font-size="14" dy=".8em" y="955.4000000953674" x="262.5">1. 智慧交通各类场景算法划分</text></g></g><g id="minder_node3"><g id="node_expander2" style="cursor: pointer;"><path id="kity_path_44" fill="white" stroke="gray" d="M241.5,2050.5A6,6,0,1,1,229.5,2050.5A6,6,0,1,1,241.5,2050.5"></path><path id="kity_path_45" fill="none" stroke="gray" d="M231,2050.5L240,2050.5"></path></g><path id="node_outline3" fill="rgb(238, 243, 246)" stroke="rgb(115, 161, 191)" d="M245.5,2037.5h233a3,3,0,0,1,3,3v20a3,3,0,0,1,-3,3h-233a3,3,0,0,1,-3,-3v-20a3,3,0,0,1,3,-3z" stroke-width="1"></path><g id="node_text3" fill="black"><text id="kity_text_41" text-rendering="inherit" font-size="14" dy=".8em" y="2041.4000000953674" x="262.5">2. 智慧交通的落地部署架构方式</text></g></g><g id="minder_node4"><g id="node_expander3" style="cursor: pointer;" display="none"><path id="kity_path_52" fill="white" stroke="gray" d="M241.5,2140.5A6,6,0,1,1,229.5,2140.5A6,6,0,1,1,241.5,2140.5"></path><path id="kity_path_53" fill="none" stroke="gray"></path></g><path id="node_outline4" fill="rgb(238, 243, 246)" stroke="rgb(115, 161, 191)" d="M245.5,2127.5h204a3,3,0,0,1,3,3v20a3,3,0,0,1,-3,3h-204a3,3,0,0,1,-3,-3v-20a3,3,0,0,1,3,-3z" stroke-width="1"></path><g id="node_text4" fill="black"><text id="kity_text_49" text-rendering="inherit" font-size="14" dy=".8em" y="2131.4000000953674" x="262.5">3. 边缘设备的行业场景应用</text></g></g><g id="minder_node5"><g id="node_expander4" style="cursor: pointer;" display="none"><path id="kity_path_60" fill="white" stroke="gray" d="M241.5,2206.5A6,6,0,1,1,229.5,2206.5A6,6,0,1,1,241.5,2206.5"></path><path id="kity_path_61" fill="none" stroke="gray"></path></g><path id="node_outline5" fill="rgb(238, 243, 246)" stroke="rgb(115, 161, 191)" d="M245.5,2193.5h191a3,3,0,0,1,3,3v20a3,3,0,0,1,-3,3h-191a3,3,0,0,1,-3,-3v-20a3,3,0,0,1,3,-3z" stroke-width="1"></path><g id="node_text5" fill="black"><text id="kity_text_57" text-rendering="inherit" font-size="14" dy=".8em" y="2197.4000000953674" x="262.5">4. AI实战训练营课程分布</text></g></g><g id="minder_node7"><g id="node_expander6" style="cursor: pointer;"><path id="kity_path_76" fill="white" stroke="gray" d="M507.5,252.5A6,6,0,1,1,495.5,252.5A6,6,0,1,1,507.5,252.5"></path><path id="kity_path_77" fill="none" stroke="gray" d="M497,252.5L506,252.5"></path></g><path id="node_outline7" fill="none" stroke="none" d="M512.5,241.5h140a5,5,0,0,1,5,5v12a5,5,0,0,1,-5,5h-140a5,5,0,0,1,-5,-5v-12a5,5,0,0,1,5,-5z" stroke-width="3"></path><g id="node_text7" fill="black"><text id="kity_text_73" text-rendering="inherit" font-size="12" dy=".8em" y="244.70000004768372" x="517.5">1.1 指挥交通的场景划分</text></g></g><g id="minder_node8"><g id="node_expander7" style="cursor: pointer;"><path id="kity_path_84" fill="white" stroke="gray" d="M507.5,1036.5A6,6,0,1,1,495.5,1036.5A6,6,0,1,1,507.5,1036.5"></path><path id="kity_path_85" fill="none" stroke="gray" d="M497,1036.5L506,1036.5"></path></g><path id="node_outline8" fill="none" stroke="none" d="M512.5,1025.5h140a5,5,0,0,1,5,5v12a5,5,0,0,1,-5,5h-140a5,5,0,0,1,-5,-5v-12a5,5,0,0,1,5,-5z" stroke-width="3"></path><g id="node_text8" fill="black"><text id="kity_text_81" text-rendering="inherit" font-size="12" dy=".8em" y="1028.7000000476837" x="517.5">1.2 智慧交通的算法划分</text></g></g><g id="minder_node9"><g id="node_expander8" style="cursor: pointer;"><path id="kity_path_92" fill="white" stroke="gray" d="M507.5,1676.5A6,6,0,1,1,495.5,1676.5A6,6,0,1,1,507.5,1676.5"></path><path id="kity_path_93" fill="none" stroke="gray" d="M497,1676.5L506,1676.5"></path></g><path id="node_outline9" fill="none" stroke="none" d="M512.5,1665.5h147a5,5,0,0,1,5,5v12a5,5,0,0,1,-5,5h-147a5,5,0,0,1,-5,-5v-12a5,5,0,0,1,5,-5z" stroke-width="3"></path><g id="node_text9" fill="black"><text id="kity_text_89" text-rendering="inherit" font-size="12" dy=".8em" y="1668.7000000476837" x="517.5">1.3 智慧交通+AI安全功能</text></g></g><g id="minder_node10"><g id="node_expander9" style="cursor: pointer;" display="none"><path id="kity_path_100" fill="white" stroke="gray" d="M521.5,2024.5A6,6,0,1,1,509.5,2024.5A6,6,0,1,1,521.5,2024.5"></path><path id="kity_path_101" fill="none" stroke="gray"></path></g><path id="node_outline10" fill="none" stroke="none" d="M526.5,2013.5h175a5,5,0,0,1,5,5v12a5,5,0,0,1,-5,5h-175a5,5,0,0,1,-5,-5v-12a5,5,0,0,1,5,-5z" stroke-width="3"></path><g id="node_text10" fill="black"><text id="kity_text_97" text-rendering="inherit" font-size="12" dy=".8em" y="2016.7000000476837" x="531.5">2.1 AI项目通用的开发交付流程</text></g></g><g id="minder_node11"><g id="node_expander10" style="cursor: pointer;" display="none"><path id="kity_path_108" fill="white" stroke="gray" d="M521.5,2076.5A6,6,0,1,1,509.5,2076.5A6,6,0,1,1,521.5,2076.5"></path><path id="kity_path_109" fill="none" stroke="gray"></path></g><path id="node_outline11" fill="none" stroke="none" d="M526.5,2065.5h151a5,5,0,0,1,5,5v12a5,5,0,0,1,-5,5h-151a5,5,0,0,1,-5,-5v-12a5,5,0,0,1,5,-5z" stroke-width="3"></path><g id="node_text11" fill="black"><text id="kity_text_105" text-rendering="inherit" font-size="12" dy=".8em" y="2068.7000000476837" x="531.5">2.2 AI项目通用的部署形式</text></g></g><g id="minder_node12"><g id="node_expander11" style="cursor: pointer;" display="none"><path id="kity_path_116" fill="white" stroke="gray" d="M697.5,31.5A6,6,0,1,1,685.5,31.5A6,6,0,1,1,697.5,31.5"></path><path id="kity_path_117" fill="none" stroke="gray"></path></g><path id="node_outline12" fill="none" stroke="none" d="M702.5,20.5h326a5,5,0,0,1,5,5v12a5,5,0,0,1,-5,5h-326a5,5,0,0,1,-5,-5v-12a5,5,0,0,1,5,-5z" stroke-width="3"></path><g id="node_text12" fill="black"><text id="kity_text_113" text-rendering="inherit" font-size="12" dy=".8em" y="23.700000047683716" x="707.5">场景主要划分为: 十字路口, 交通卡口, 交通出入口, 停车场等</text></g></g><g id="minder_node13"><g id="node_expander12" style="cursor: pointer;" display="none"><path id="kity_path_124" fill="white" stroke="gray" d="M697.5,149A6,6,0,1,1,685.5,149A6,6,0,1,1,697.5,149"></path><path id="kity_path_125" fill="none" stroke="gray"></path></g><path id="node_outline13" fill="none" stroke="none" d="M702.5,72.5h210a5,5,0,0,1,5,5v143a5,5,0,0,1,-5,5h-210a5,5,0,0,1,-5,-5v-143a5,5,0,0,1,5,-5z" stroke-width="3"></path><g id="node_text13" fill="black"><text id="kity_text_121" text-rendering="inherit" font-size="12" dy=".8em" y="206.70000004768372" x="806.5"> </text></g><image id="kity_image_126" xlink:href="https://kityminder-img.gz.bcebos.com/ef93e85fad1ab9da8ff4b841dc4fc848f32f5eb8" x="707.5" y="77.5" width="200" height="126"></image></g><g id="minder_node14"><g id="node_expander13" style="cursor: pointer;"><path id="kity_path_133" fill="white" stroke="gray" d="M697.5,474.5A6,6,0,1,1,685.5,474.5A6,6,0,1,1,697.5,474.5"></path><path id="kity_path_134" fill="none" stroke="gray" d="M687,474.5L696,474.5"></path></g><path id="node_outline14" fill="none" stroke="none" d="M702.5,463.5h361a5,5,0,0,1,5,5v12a5,5,0,0,1,-5,5h-361a5,5,0,0,1,-5,-5v-12a5,5,0,0,1,5,-5z" stroke-width="3"></path><g id="node_text14" fill="black"><text id="kity_text_130" text-rendering="inherit" font-size="12" dy=".8em" y="466.7000000476837" x="707.5">交通行业主要对交通场景内的行人, 机动车, 非机动车进行识别分析</text></g></g><g id="minder_node16"><g id="node_expander15" style="cursor: pointer;"><path id="kity_path_149" fill="white" stroke="gray" d="M1108.5,292.5A6,6,0,1,1,1096.5,292.5A6,6,0,1,1,1108.5,292.5"></path><path id="kity_path_150" fill="none" stroke="gray" d="M1098,292.5L1107,292.5"></path></g><path id="node_outline16" fill="none" stroke="none" d="M1113.5,281.5h84a5,5,0,0,1,5,5v12a5,5,0,0,1,-5,5h-84a5,5,0,0,1,-5,-5v-12a5,5,0,0,1,5,-5z" stroke-width="3"></path><g id="node_text16" fill="black"><text id="kity_text_146" text-rendering="inherit" font-size="12" dy=".8em" y="284.7000000476837" x="1118.5">行人识别分析</text></g></g><g id="minder_node17"><g id="node_expander16" style="cursor: pointer;"><path id="kity_path_157" fill="white" stroke="gray" d="M1108.5,448.5A6,6,0,1,1,1096.5,448.5A6,6,0,1,1,1108.5,448.5"></path><path id="kity_path_158" fill="none" stroke="gray" d="M1098,448.5L1107,448.5"></path></g><path id="node_outline17" fill="none" stroke="none" d="M1113.5,437.5h96a5,5,0,0,1,5,5v12a5,5,0,0,1,-5,5h-96a5,5,0,0,1,-5,-5v-12a5,5,0,0,1,5,-5z" stroke-width="3"></path><g id="node_text17" fill="black"><text id="kity_text_154" text-rendering="inherit" font-size="12" dy=".8em" y="440.7000000476837" x="1118.5">机动车识别分析</text></g></g><g id="minder_node18"><g id="node_expander17" style="cursor: pointer;"><path id="kity_path_165" fill="white" stroke="gray" d="M1108.5,656.5A6,6,0,1,1,1096.5,656.5A6,6,0,1,1,1108.5,656.5"></path><path id="kity_path_166" fill="none" stroke="gray" d="M1098,656.5L1107,656.5"></path></g><path id="node_outline18" fill="none" stroke="none" d="M1113.5,645.5h108a5,5,0,0,1,5,5v12a5,5,0,0,1,-5,5h-108a5,5,0,0,1,-5,-5v-12a5,5,0,0,1,5,-5z" stroke-width="3"></path><g id="node_text18" fill="black"><text id="kity_text_162" text-rendering="inherit" font-size="12" dy=".8em" y="648.7000000476837" x="1118.5">非机动车识别分析</text></g></g><g id="minder_node19"><g id="node_expander18" style="cursor: pointer;" display="none"><path id="kity_path_173" fill="white" stroke="gray" d="M1242.5,266.5A6,6,0,1,1,1230.5,266.5A6,6,0,1,1,1242.5,266.5"></path><path id="kity_path_174" fill="none" stroke="gray"></path></g><path id="node_outline19" fill="none" stroke="none" d="M1247.5,255.5h283a5,5,0,0,1,5,5v12a5,5,0,0,1,-5,5h-283a5,5,0,0,1,-5,-5v-12a5,5,0,0,1,5,-5z" stroke-width="3"></path><g id="node_text19" fill="black"><text id="kity_text_170" text-rendering="inherit" font-size="12" dy=".8em" y="258.7000000476837" x="1252.5">姿态, 方向, 外观, 以及基于行人的交通事件识别分析</text></g></g><g id="minder_node20"><g id="node_expander19" style="cursor: pointer;" display="none"><path id="kity_path_181" fill="white" stroke="gray" d="M1242.5,318.5A6,6,0,1,1,1230.5,318.5A6,6,0,1,1,1242.5,318.5"></path><path id="kity_path_182" fill="none" stroke="gray"></path></g><path id="node_outline20" fill="none" stroke="none" d="M1247.5,307.5h114a5,5,0,0,1,5,5v12a5,5,0,0,1,-5,5h-114a5,5,0,0,1,-5,-5v-12a5,5,0,0,1,5,-5z" stroke-width="3"></path><g id="node_text20" fill="black"><text id="kity_text_178" text-rendering="inherit" font-size="12" dy=".8em" y="310.7000000476837" x="1252.5">例如, 行人闯红灯等</text></g></g><g id="minder_node21"><g id="node_expander20" style="cursor: pointer;" display="none"><path id="kity_path_189" fill="white" stroke="gray" d="M1254.5,370.5A6,6,0,1,1,1242.5,370.5A6,6,0,1,1,1254.5,370.5"></path><path id="kity_path_190" fill="none" stroke="gray"></path></g><path id="node_outline21" fill="none" stroke="none" d="M1259.5,359.5h238a5,5,0,0,1,5,5v12a5,5,0,0,1,-5,5h-238a5,5,0,0,1,-5,-5v-12a5,5,0,0,1,5,-5z" stroke-width="3"></path><g id="node_text21" fill="black"><text id="kity_text_186" text-rendering="inherit" font-size="12" dy=".8em" y="362.7000000476837" x="1264.5">外形,颜色, 车灯, 车窗, 驾驶员安全事件分析</text></g></g><g id="minder_node22"><g id="node_expander21" style="cursor: pointer;" display="none"><path id="kity_path_197" fill="white" stroke="gray" d="M1254.5,422.5A6,6,0,1,1,1242.5,422.5A6,6,0,1,1,1254.5,422.5"></path><path id="kity_path_198" fill="none" stroke="gray"></path></g><path id="node_outline22" fill="none" stroke="none" d="M1259.5,411.5h193a5,5,0,0,1,5,5v12a5,5,0,0,1,-5,5h-193a5,5,0,0,1,-5,-5v-12a5,5,0,0,1,5,-5z" stroke-width="3"></path><g id="node_text22" fill="black"><text id="kity_text_194" text-rendering="inherit" font-size="12" dy=".8em" y="414.7000000476837" x="1264.5">例如, 是否在打电话, 是否系安全带</text></g></g><g id="minder_node25"><g id="node_expander24" style="cursor: pointer;" display="none"><path id="kity_path_221" fill="white" stroke="gray" d="M1254.5,474.5A6,6,0,1,1,1242.5,474.5A6,6,0,1,1,1254.5,474.5"></path><path id="kity_path_222" fill="none" stroke="gray"></path></g><path id="node_outline25" fill="none" stroke="none" d="M1259.5,463.5h269a5,5,0,0,1,5,5v12a5,5,0,0,1,-5,5h-269a5,5,0,0,1,-5,-5v-12a5,5,0,0,1,5,-5z" stroke-width="3"></path><g id="node_text25" fill="black"><text id="kity_text_218" text-rendering="inherit" font-size="12" dy=".8em" y="466.7000000476837" x="1264.5">车牌, 车辆方向和基于机动车的交通事件识别分析</text></g></g><g id="minder_node26"><g id="node_expander25" style="cursor: pointer;" display="none"><path id="kity_path_229" fill="white" stroke="gray" d="M1254.5,526.5A6,6,0,1,1,1242.5,526.5A6,6,0,1,1,1254.5,526.5"></path><path id="kity_path_230" fill="none" stroke="gray"></path></g><path id="node_outline26" fill="none" stroke="none" d="M1259.5,515.5h157a5,5,0,0,1,5,5v12a5,5,0,0,1,-5,5h-157a5,5,0,0,1,-5,-5v-12a5,5,0,0,1,5,-5z" stroke-width="3"></path><g id="node_text26" fill="black"><text id="kity_text_226" text-rendering="inherit" font-size="12" dy=".8em" y="518.7000000476837" x="1264.5">例如, 超速检测, 违停判定等</text></g></g><g id="minder_node27"><g id="node_expander26" style="cursor: pointer;" display="none"><path id="kity_path_237" fill="white" stroke="gray" d="M1266.5,578.5A6,6,0,1,1,1254.5,578.5A6,6,0,1,1,1266.5,578.5"></path><path id="kity_path_238" fill="none" stroke="gray"></path></g><path id="node_outline27" fill="none" stroke="none" d="M1271.5,567.5h277a5,5,0,0,1,5,5v12a5,5,0,0,1,-5,5h-277a5,5,0,0,1,-5,-5v-12a5,5,0,0,1,5,-5z" stroke-width="3"></path><g id="node_text27" fill="black"><text id="kity_text_234" text-rendering="inherit" font-size="12" dy=".8em" y="570.7000000476837" x="1276.5">细分类别识别, 运动状态识别, 驾驶员安全事件分析</text></g></g><g id="minder_node28"><g id="node_expander27" style="cursor: pointer;" display="none"><path id="kity_path_245" fill="white" stroke="gray" d="M1266.5,630.5A6,6,0,1,1,1254.5,630.5A6,6,0,1,1,1266.5,630.5"></path><path id="kity_path_246" fill="none" stroke="gray"></path></g><path id="node_outline28" fill="none" stroke="none" d="M1271.5,619.5h126a5,5,0,0,1,5,5v12a5,5,0,0,1,-5,5h-126a5,5,0,0,1,-5,-5v-12a5,5,0,0,1,5,-5z" stroke-width="3"></path><g id="node_text28" fill="black"><text id="kity_text_242" text-rendering="inherit" font-size="12" dy=".8em" y="622.7000000476837" x="1276.5">例如, 是否带安全头盔</text></g></g><g id="minder_node29"><g id="node_expander28" style="cursor: pointer;" display="none"><path id="kity_path_253" fill="white" stroke="gray" d="M1266.5,682.5A6,6,0,1,1,1254.5,682.5A6,6,0,1,1,1266.5,682.5"></path><path id="kity_path_254" fill="none" stroke="gray"></path></g><path id="node_outline29" fill="none" stroke="none" d="M1271.5,671.5h192a5,5,0,0,1,5,5v12a5,5,0,0,1,-5,5h-192a5,5,0,0,1,-5,-5v-12a5,5,0,0,1,5,-5z" stroke-width="3"></path><g id="node_text29" fill="black"><text id="kity_text_250" text-rendering="inherit" font-size="12" dy=".8em" y="674.7000000476837" x="1276.5">基于非机动车的交通事件识别分析</text></g></g><g id="minder_node30"><g id="node_expander29" style="cursor: pointer;" display="none"><path id="kity_path_261" fill="white" stroke="gray" d="M1266.5,734.5A6,6,0,1,1,1254.5,734.5A6,6,0,1,1,1266.5,734.5"></path><path id="kity_path_262" fill="none" stroke="gray"></path></g><path id="node_outline30" fill="none" stroke="none" d="M1271.5,723.5h132a5,5,0,0,1,5,5v12a5,5,0,0,1,-5,5h-132a5,5,0,0,1,-5,-5v-12a5,5,0,0,1,5,-5z" stroke-width="3"></path><g id="node_text30" fill="black"><text id="kity_text_258" text-rendering="inherit" font-size="12" dy=".8em" y="726.7000000476837" x="1276.5">例如非机动车闯红灯等</text></g></g><g id="minder_node31"><g id="node_expander30" style="cursor: pointer;"><path id="kity_path_269" fill="white" stroke="gray" d="M697.5,786.5A6,6,0,1,1,685.5,786.5A6,6,0,1,1,697.5,786.5"></path><path id="kity_path_270" fill="none" stroke="gray" d="M687,786.5L696,786.5"></path></g><path id="node_outline31" fill="none" stroke="none" d="M702.5,775.5h59a5,5,0,0,1,5,5v12a5,5,0,0,1,-5,5h-59a5,5,0,0,1,-5,-5v-12a5,5,0,0,1,5,-5z" stroke-width="3"></path><g id="node_text31" fill="black"><text id="kity_text_266" text-rendering="inherit" font-size="12" dy=".8em" y="778.7000000476837" x="707.5">应用场景</text></g></g><g id="minder_node32"><g id="node_expander31" style="cursor: pointer;"><path id="kity_path_277" fill="white" stroke="gray" d="M806.5,786.5A6,6,0,1,1,794.5,786.5A6,6,0,1,1,806.5,786.5"></path><path id="kity_path_278" fill="none" stroke="gray" d="M796,786.5L805,786.5"></path></g><path id="node_outline32" fill="none" stroke="none" d="M811.5,775.5h71a5,5,0,0,1,5,5v12a5,5,0,0,1,-5,5h-71a5,5,0,0,1,-5,-5v-12a5,5,0,0,1,5,-5z" stroke-width="3"></path><g id="node_text32" fill="black"><text id="kity_text_274" text-rendering="inherit" font-size="12" dy=".8em" y="778.7000000476837" x="816.5">AI算法功能</text></g></g><g id="minder_node33"><g id="node_expander32" style="cursor: pointer;" display="none"><path id="kity_path_285" fill="white" stroke="gray" d="M927.5,786.5A6,6,0,1,1,915.5,786.5A6,6,0,1,1,927.5,786.5"></path><path id="kity_path_286" fill="none" stroke="gray"></path></g><path id="node_outline33" fill="none" stroke="none" d="M932.5,775.5h72a5,5,0,0,1,5,5v12a5,5,0,0,1,-5,5h-72a5,5,0,0,1,-5,-5v-12a5,5,0,0,1,5,-5z" stroke-width="3"></path><g id="node_text33" fill="black"><text id="kity_text_282" text-rendering="inherit" font-size="12" dy=".8em" y="778.7000000476837" x="937.5">AI算法模型</text></g></g><g id="minder_node35"><g id="node_expander34" style="cursor: pointer;" display="none"><path id="kity_path_301" fill="white" stroke="gray" d="M697.5,838.5A6,6,0,1,1,685.5,838.5A6,6,0,1,1,697.5,838.5"></path><path id="kity_path_302" fill="none" stroke="gray"></path></g><path id="node_outline35" fill="none" stroke="none" d="M702.5,827.5h341a5,5,0,0,1,5,5v12a5,5,0,0,1,-5,5h-341a5,5,0,0,1,-5,-5v-12a5,5,0,0,1,5,-5z" stroke-width="3"></path><g id="node_text35" fill="black"><text id="kity_text_298" text-rendering="inherit" font-size="12" dy=".8em" y="830.7000000476837" x="707.5">上面三者的有机结合, 形成了面对不同需求的整体算法解决方案</text></g></g><g id="minder_node36"><g id="node_expander35" style="cursor: pointer;" display="none"><path id="kity_path_309" fill="white" stroke="gray" d="M697.5,959A6,6,0,1,1,685.5,959A6,6,0,1,1,697.5,959"></path><path id="kity_path_310" fill="none" stroke="gray"></path></g><path id="node_outline36" fill="none" stroke="none" d="M702.5,879.5h210a5,5,0,0,1,5,5v149a5,5,0,0,1,-5,5h-210a5,5,0,0,1,-5,-5v-149a5,5,0,0,1,5,-5z" stroke-width="3"></path><g id="node_text36" fill="black"><text id="kity_text_306" text-rendering="inherit" font-size="12" dy=".8em" y="1019.7000000476837" x="806.5"> </text></g><image id="kity_image_311" xlink:href="https://kityminder-img.gz.bcebos.com/e498b1afa8eb5ff9d14b5e8e83e679f5d532fc65" x="707.5" y="884.5" width="200" height="132"></image></g><g id="minder_node37"><g id="node_expander36" style="cursor: pointer;" display="none"><path id="kity_path_318" fill="white" stroke="gray" d="M697.5,1079.5A6,6,0,1,1,685.5,1079.5A6,6,0,1,1,697.5,1079.5"></path><path id="kity_path_319" fill="none" stroke="gray"></path></g><path id="node_outline37" fill="none" stroke="none" d="M702.5,1068.5h360a5,5,0,0,1,5,5v12a5,5,0,0,1,-5,5h-360a5,5,0,0,1,-5,-5v-12a5,5,0,0,1,5,-5z" stroke-width="3"></path><g id="node_text37" fill="black"><text id="kity_text_315" text-rendering="inherit" font-size="12" dy=".8em" y="1071.7000000476837" x="707.5">车牌识别功能=车辆检测+车牌检测+车牌OCR识别+业务功能判断</text></g></g><g id="minder_node38"><g id="node_expander37" style="cursor: pointer;" display="none"><path id="kity_path_326" fill="white" stroke="gray" d="M697.5,1131.5A6,6,0,1,1,685.5,1131.5A6,6,0,1,1,697.5,1131.5"></path><path id="kity_path_327" fill="none" stroke="gray"></path></g><path id="node_outline38" fill="none" stroke="none" d="M702.5,1120.5h266a5,5,0,0,1,5,5v12a5,5,0,0,1,-5,5h-266a5,5,0,0,1,-5,-5v-12a5,5,0,0,1,5,-5z" stroke-width="3"></path><g id="node_text38" fill="black"><text id="kity_text_323" text-rendering="inherit" font-size="12" dy=".8em" y="1123.7000000476837" x="707.5">行人识别功能=行人检测+人脸识别+行人重识别</text></g></g><g id="minder_node40"><g id="node_expander39" style="cursor: pointer;" display="none"><path id="kity_path_342" fill="white" stroke="gray" d="M697.5,1183.5A6,6,0,1,1,685.5,1183.5A6,6,0,1,1,697.5,1183.5"></path><path id="kity_path_343" fill="none" stroke="gray"></path></g><path id="node_outline40" fill="none" stroke="none" d="M702.5,1172.5h370a5,5,0,0,1,5,5v12a5,5,0,0,1,-5,5h-370a5,5,0,0,1,-5,-5v-12a5,5,0,0,1,5,-5z" stroke-width="3"></path><g id="node_text40" fill="black"><text id="kity_text_339" text-rendering="inherit" font-size="12" dy=".8em" y="1175.7000000476837" x="707.5">车辆属性识别功能=车辆检测+车标识别+车系识别+驾驶员行为识别</text></g></g><g id="minder_node41"><g id="node_expander40" style="cursor: pointer;"><path id="kity_path_350" fill="white" stroke="gray" d="M697.5,1287.5A6,6,0,1,1,685.5,1287.5A6,6,0,1,1,697.5,1287.5"></path><path id="kity_path_351" fill="none" stroke="gray" d="M687,1287.5L696,1287.5"></path></g><path id="node_outline41" fill="none" stroke="none" d="M702.5,1276.5h107a5,5,0,0,1,5,5v12a5,5,0,0,1,-5,5h-107a5,5,0,0,1,-5,-5v-12a5,5,0,0,1,5,-5z" stroke-width="3"></path><g id="node_text41" fill="black"><text id="kity_text_347" text-rendering="inherit" font-size="12" dy=".8em" y="1279.7000000476837" x="707.5">交通事件检测功能</text></g></g><g id="minder_node43"><g id="node_expander42" style="cursor: pointer;" display="none"><path id="kity_path_366" fill="white" stroke="gray" d="M854.5,1235.5A6,6,0,1,1,842.5,1235.5A6,6,0,1,1,854.5,1235.5"></path><path id="kity_path_367" fill="none" stroke="gray"></path></g><path id="node_outline43" fill="none" stroke="none" d="M859.5,1224.5h416a5,5,0,0,1,5,5v12a5,5,0,0,1,-5,5h-416a5,5,0,0,1,-5,-5v-12a5,5,0,0,1,5,-5z" stroke-width="3"></path><g id="node_text43" fill="black"><text id="kity_text_363" text-rendering="inherit" font-size="12" dy=".8em" y="1227.7000000476837" x="864.5">更加复杂, 例如行人闯红灯, 车辆闯红灯, 机动车超速, 超时停车, 机动车违停等</text></g></g><g id="minder_node44"><g id="node_expander43" style="cursor: pointer;"><path id="kity_path_374" fill="white" stroke="gray" d="M854.5,1339.5A6,6,0,1,1,842.5,1339.5A6,6,0,1,1,854.5,1339.5"></path><path id="kity_path_375" fill="none" stroke="gray" d="M844,1339.5L853,1339.5"></path></g><path id="node_outline44" fill="none" stroke="none" d="M859.5,1328.5h19a5,5,0,0,1,5,5v12a5,5,0,0,1,-5,5h-19a5,5,0,0,1,-5,-5v-12a5,5,0,0,1,5,-5z" stroke-width="3"></path><g id="node_text44" fill="black"><text id="kity_text_371" text-rendering="inherit" font-size="12" dy=".8em" y="1331.7000000476837" x="864.5">=</text></g></g><g id="minder_node45"><g id="node_expander44" style="cursor: pointer;" display="none"><path id="kity_path_382" fill="white" stroke="gray" d="M923.5,1287.5A6,6,0,1,1,911.5,1287.5A6,6,0,1,1,923.5,1287.5"></path><path id="kity_path_383" fill="none" stroke="gray"></path></g><path id="node_outline45" fill="none" stroke="none" d="M928.5,1276.5h132a5,5,0,0,1,5,5v12a5,5,0,0,1,-5,5h-132a5,5,0,0,1,-5,-5v-12a5,5,0,0,1,5,-5z" stroke-width="3"></path><g id="node_text45" fill="black"><text id="kity_text_379" text-rendering="inherit" font-size="12" dy=".8em" y="1279.7000000476837" x="933.5">大量交通规则作为约束</text></g></g><g id="minder_node46"><g id="node_expander45" style="cursor: pointer;" display="none"><path id="kity_path_390" fill="white" stroke="gray" d="M923.5,1339.5A6,6,0,1,1,911.5,1339.5A6,6,0,1,1,923.5,1339.5"></path><path id="kity_path_391" fill="none" stroke="gray"></path></g><path id="node_outline46" fill="none" stroke="none" d="M928.5,1328.5h156a5,5,0,0,1,5,5v12a5,5,0,0,1,-5,5h-156a5,5,0,0,1,-5,-5v-12a5,5,0,0,1,5,-5z" stroke-width="3"></path><g id="node_text46" fill="black"><text id="kity_text_387" text-rendering="inherit" font-size="12" dy=".8em" y="1331.7000000476837" x="933.5">检测机动车, 行人, 非机动车</text></g></g><g id="minder_node47"><g id="node_expander46" style="cursor: pointer;"><path id="kity_path_398" fill="white" stroke="gray" d="M923.5,1391.5A6,6,0,1,1,911.5,1391.5A6,6,0,1,1,923.5,1391.5"></path><path id="kity_path_399" fill="none" stroke="gray" d="M913,1391.5L922,1391.5"></path></g><path id="node_outline47" fill="none" stroke="none" d="M928.5,1380.5h168a5,5,0,0,1,5,5v12a5,5,0,0,1,-5,5h-168a5,5,0,0,1,-5,-5v-12a5,5,0,0,1,5,-5z" stroke-width="3"></path><g id="node_text47" fill="black"><text id="kity_text_395" text-rendering="inherit" font-size="12" dy=".8em" y="1383.7000000476837" x="933.5">准确感知当前的背景环境条件</text></g></g><g id="minder_node48"><g id="node_expander47" style="cursor: pointer;" display="none"><path id="kity_path_406" fill="white" stroke="gray" d="M1141.5,1391.5A6,6,0,1,1,1129.5,1391.5A6,6,0,1,1,1141.5,1391.5"></path><path id="kity_path_407" fill="none" stroke="gray"></path></g><path id="node_outline48" fill="none" stroke="none" d="M1146.5,1380.5h241a5,5,0,0,1,5,5v12a5,5,0,0,1,-5,5h-241a5,5,0,0,1,-5,-5v-12a5,5,0,0,1,5,-5z" stroke-width="3"></path><g id="node_text48" fill="black"><text id="kity_text_403" text-rendering="inherit" font-size="12" dy=".8em" y="1383.7000000476837" x="1151.5">例如, 检测交通指示牌, 检测交通道路指示线</text></g></g><g id="minder_node49"><g id="node_expander48" style="cursor: pointer;" display="none"><path id="kity_path_414" fill="white" stroke="gray" d="M704.5,1442.5A6,6,0,1,1,692.5,1442.5A6,6,0,1,1,704.5,1442.5"></path><path id="kity_path_415" fill="none" stroke="gray"></path></g><path id="node_outline49" fill="none" stroke="none" d="M709.5,1431.5h493a5,5,0,0,1,5,5v12a5,5,0,0,1,-5,5h-493a5,5,0,0,1,-5,-5v-12a5,5,0,0,1,5,-5z" stroke-width="3"></path><g id="node_text49" fill="black"><text id="kity_text_411" text-rendering="inherit" font-size="12" dy=".8em" y="1434.7000000476837" x="714.5">车辆识别, 车辆属性识别, 交通事件检测, 交通执法判定, 行人识别等是智慧交通中的复合任务</text></g></g><g id="minder_node50"><g id="node_expander49" style="cursor: pointer;" display="none"><path id="kity_path_422" fill="white" stroke="gray" d="M704.5,1494.5A6,6,0,1,1,692.5,1494.5A6,6,0,1,1,704.5,1494.5"></path><path id="kity_path_423" fill="none" stroke="gray"></path></g><path id="node_outline50" fill="none" stroke="none" d="M709.5,1483.5h234a5,5,0,0,1,5,5v12a5,5,0,0,1,-5,5h-234a5,5,0,0,1,-5,-5v-12a5,5,0,0,1,5,-5z" stroke-width="3"></path><g id="node_text50" fill="black"><text id="kity_text_419" text-rendering="inherit" font-size="12" dy=".8em" y="1486.7000000476837" x="714.5">复合任务的流程中, 可能存在AI安全的风险</text></g></g><g id="minder_node51" opacity="1"><g id="node_expander50" style="cursor: pointer;"><path id="kity_path_430" fill="white" stroke="gray" d="M826.5,1598.5A6,6,0,1,1,814.5,1598.5A6,6,0,1,1,826.5,1598.5"></path><path id="kity_path_431" fill="none" stroke="gray" d="M816,1598.5L825,1598.5"></path></g><path id="node_outline51" fill="none" stroke="none" d="M831.5,1587.5h179a5,5,0,0,1,5,5v12a5,5,0,0,1,-5,5h-179a5,5,0,0,1,-5,-5v-12a5,5,0,0,1,5,-5z" stroke-width="3"></path><g id="node_text51" fill="black"><text id="kity_text_427" text-rendering="inherit" font-size="12" dy=".8em" y="1590.7000000476837" x="836.5">例如对交通指示牌进行对抗攻击</text></g></g><g id="minder_node55" opacity="1"><g id="node_expander54" style="cursor: pointer;"><path id="kity_path_462" fill="white" stroke="gray" d="M826.5,1754.5A6,6,0,1,1,814.5,1754.5A6,6,0,1,1,826.5,1754.5"></path><path id="kity_path_463" fill="none" stroke="gray" d="M816,1754.5L825,1754.5"></path></g><path id="node_outline55" fill="none" stroke="none" d="M831.5,1743.5h143a5,5,0,0,1,5,5v12a5,5,0,0,1,-5,5h-143a5,5,0,0,1,-5,-5v-12a5,5,0,0,1,5,-5z" stroke-width="3"></path><g id="node_text55" fill="black"><text id="kity_text_459" text-rendering="inherit" font-size="12" dy=".8em" y="1746.7000000476837" x="836.5">例如对行人检测进行攻击</text></g></g><g id="minder_node59"><g id="node_expander58" style="cursor: pointer;"><path id="kity_path_494" fill="white" stroke="gray" d="M704.5,1676.5A6,6,0,1,1,692.5,1676.5A6,6,0,1,1,704.5,1676.5"></path><path id="kity_path_495" fill="none" stroke="gray" d="M694,1676.5L703,1676.5"></path></g><path id="node_outline59" fill="none" stroke="none" d="M709.5,1665.5h72a5,5,0,0,1,5,5v12a5,5,0,0,1,-5,5h-72a5,5,0,0,1,-5,-5v-12a5,5,0,0,1,5,-5z" stroke-width="3"></path><g id="node_text59" fill="black"><text id="kity_text_491" text-rendering="inherit" font-size="12" dy=".8em" y="1668.7000000476837" x="714.5">AI安全风险</text></g></g><g id="minder_node52"><g id="node_expander51" style="cursor: pointer;" display="none"><path id="kity_path_438" fill="white" stroke="gray" d="M1055.5,1546.5A6,6,0,1,1,1043.5,1546.5A6,6,0,1,1,1055.5,1546.5"></path><path id="kity_path_439" fill="none" stroke="gray"></path></g><path id="node_outline52" fill="none" stroke="none" d="M1060.5,1535.5h83a5,5,0,0,1,5,5v12a5,5,0,0,1,-5,5h-83a5,5,0,0,1,-5,-5v-12a5,5,0,0,1,5,-5z" stroke-width="3"></path><g id="node_text52" fill="black"><text id="kity_text_435" text-rendering="inherit" font-size="12" dy=".8em" y="1538.7000000476837" x="1065.5">风格迁移攻击</text></g></g><g id="minder_node53"><g id="node_expander52" style="cursor: pointer;" display="none"><path id="kity_path_446" fill="white" stroke="gray" d="M1055.5,1598.5A6,6,0,1,1,1043.5,1598.5A6,6,0,1,1,1055.5,1598.5"></path><path id="kity_path_447" fill="none" stroke="gray"></path></g><path id="node_outline53" fill="none" stroke="none" d="M1060.5,1587.5h143a5,5,0,0,1,5,5v12a5,5,0,0,1,-5,5h-143a5,5,0,0,1,-5,-5v-12a5,5,0,0,1,5,-5z" stroke-width="3"></path><g id="node_text53" fill="black"><text id="kity_text_443" text-rendering="inherit" font-size="12" dy=".8em" y="1590.7000000476837" x="1065.5">导致对交通指示牌的误判</text></g></g><g id="minder_node54"><g id="node_expander53" style="cursor: pointer;" display="none"><path id="kity_path_454" fill="white" stroke="gray" d="M1055.5,1650.5A6,6,0,1,1,1043.5,1650.5A6,6,0,1,1,1055.5,1650.5"></path><path id="kity_path_455" fill="none" stroke="gray"></path></g><path id="node_outline54" fill="none" stroke="none" d="M1060.5,1639.5h156a5,5,0,0,1,5,5v12a5,5,0,0,1,-5,5h-156a5,5,0,0,1,-5,-5v-12a5,5,0,0,1,5,-5z" stroke-width="3"></path><g id="node_text54" fill="black"><text id="kity_text_451" text-rendering="inherit" font-size="12" dy=".8em" y="1642.7000000476837" x="1065.5">可能引发严重交通连锁后果</text></g></g><g id="kity_g_12" display="none"><path id="kity_path_13" fill="none" stroke="rgb(66, 94, 112)" d="M709.5,1840.5h72a5,5,0,0,1,5,5v12a5,5,0,0,1,-5,5h-72a5,5,0,0,1,-5,-5v-12a5,5,0,0,1,5,-5z" stroke-width="5"></path></g><g id="minder_node56"><g id="node_expander55" style="cursor: pointer;" display="none"><path id="kity_path_470" fill="white" stroke="gray" d="M1019.5,1702.5A6,6,0,1,1,1007.5,1702.5A6,6,0,1,1,1019.5,1702.5"></path><path id="kity_path_471" fill="none" stroke="gray"></path></g><path id="node_outline56" fill="none" stroke="none" d="M1024.5,1691.5h83a5,5,0,0,1,5,5v12a5,5,0,0,1,-5,5h-83a5,5,0,0,1,-5,-5v-12a5,5,0,0,1,5,-5z" stroke-width="3"></path><g id="node_text56" fill="black"><text id="kity_text_467" text-rendering="inherit" font-size="12" dy=".8em" y="1694.7000000476837" x="1029.5">对抗贴纸攻击</text></g></g><g id="minder_node57"><g id="node_expander56" style="cursor: pointer;" display="none"><path id="kity_path_478" fill="white" stroke="gray" d="M1019.5,1754.5A6,6,0,1,1,1007.5,1754.5A6,6,0,1,1,1019.5,1754.5"></path><path id="kity_path_479" fill="none" stroke="gray"></path></g><path id="node_outline57" fill="none" stroke="none" d="M1024.5,1743.5h179a5,5,0,0,1,5,5v12a5,5,0,0,1,-5,5h-179a5,5,0,0,1,-5,-5v-12a5,5,0,0,1,5,-5z" stroke-width="3"></path><g id="node_text57" fill="black"><text id="kity_text_475" text-rendering="inherit" font-size="12" dy=".8em" y="1746.7000000476837" x="1029.5">对行人检测模型产生较大的影响</text></g></g><g id="minder_node58"><g id="node_expander57" style="cursor: pointer;" display="none"><path id="kity_path_486" fill="white" stroke="gray" d="M1019.5,1806.5A6,6,0,1,1,1007.5,1806.5A6,6,0,1,1,1019.5,1806.5"></path><path id="kity_path_487" fill="none" stroke="gray"></path></g><path id="node_outline58" fill="none" stroke="none" d="M1024.5,1795.5h155a5,5,0,0,1,5,5v12a5,5,0,0,1,-5,5h-155a5,5,0,0,1,-5,-5v-12a5,5,0,0,1,5,-5z" stroke-width="3"></path><g id="node_text58" fill="black"><text id="kity_text_483" text-rendering="inherit" font-size="12" dy=".8em" y="1798.7000000476837" x="1029.5">无法对行人做出准确的检测</text></g></g><g id="minder_node60"><g id="node_expander59" style="cursor: pointer;"><path id="kity_path_508" fill="white" stroke="gray" d="M704.5,1910.5A6,6,0,1,1,692.5,1910.5A6,6,0,1,1,704.5,1910.5"></path><path id="kity_path_509" fill="none" stroke="gray" d="M694,1910.5L703,1910.5"></path></g><path id="node_outline60" fill="none" stroke="none" d="M709.5,1899.5h96a5,5,0,0,1,5,5v12a5,5,0,0,1,-5,5h-96a5,5,0,0,1,-5,-5v-12a5,5,0,0,1,5,-5z" stroke-width="3"></path><g id="node_text60" fill="black"><text id="kity_text_505" text-rendering="inherit" font-size="12" dy=".8em" y="1902.7000000476837" x="714.5">AI安全防御策略</text></g></g><g id="minder_node61"><g id="node_expander60" style="cursor: pointer;" display="none"><path id="kity_path_516" fill="white" stroke="gray" d="M850.5,1858.5A6,6,0,1,1,838.5,1858.5A6,6,0,1,1,850.5,1858.5"></path><path id="kity_path_517" fill="none" stroke="gray"></path></g><path id="node_outline61" fill="none" stroke="none" d="M855.5,1847.5h83a5,5,0,0,1,5,5v12a5,5,0,0,1,-5,5h-83a5,5,0,0,1,-5,-5v-12a5,5,0,0,1,5,-5z" stroke-width="3"></path><g id="node_text61" fill="black"><text id="kity_text_513" text-rendering="inherit" font-size="12" dy=".8em" y="1850.7000000476837" x="860.5">对抗样本检测</text></g></g><g id="minder_node62"><g id="node_expander61" style="cursor: pointer;" display="none"><path id="kity_path_524" fill="white" stroke="gray" d="M850.5,1910.5A6,6,0,1,1,838.5,1910.5A6,6,0,1,1,850.5,1910.5"></path><path id="kity_path_525" fill="none" stroke="gray"></path></g><path id="node_outline62" fill="none" stroke="none" d="M855.5,1899.5h83a5,5,0,0,1,5,5v12a5,5,0,0,1,-5,5h-83a5,5,0,0,1,-5,-5v-12a5,5,0,0,1,5,-5z" stroke-width="3"></path><g id="node_text62" fill="black"><text id="kity_text_521" text-rendering="inherit" font-size="12" dy=".8em" y="1902.7000000476837" x="860.5">黑盒攻击防御</text></g></g><g id="minder_node63"><g id="node_expander62" style="cursor: pointer;" display="none"><path id="kity_path_532" fill="white" stroke="gray" d="M850.5,1962.5A6,6,0,1,1,838.5,1962.5A6,6,0,1,1,850.5,1962.5"></path><path id="kity_path_533" fill="none" stroke="gray"></path></g><path id="node_outline63" fill="none" stroke="none" d="M855.5,1951.5h82a5,5,0,0,1,5,5v12a5,5,0,0,1,-5,5h-82a5,5,0,0,1,-5,-5v-12a5,5,0,0,1,5,-5z" stroke-width="3"></path><g id="node_text63" fill="black"><text id="kity_text_529" text-rendering="inherit" font-size="12" dy=".8em" y="1954.7000000476837" x="860.5">白盒攻击防御</text></g></g></g></g></svg>